<mxfile host="app.diagrams.net" modified="2023-09-10T15:43:42.531Z" agent="Mozilla/5.0 (Macintosh; Intel Mac OS X 10.15; rv:109.0) Gecko/20100101 Firefox/117.0" etag="P2ozuM1u5bGcpEJZysid" version="21.7.4" type="device">
  <diagram name="Pagina-1" id="2gos69s21MuJ627ifOLR">
    <mxGraphModel dx="2876" dy="1310" grid="1" gridSize="10" guides="1" tooltips="1" connect="1" arrows="1" fold="1" page="1" pageScale="1" pageWidth="827" pageHeight="1169" math="0" shadow="0">
      <root>
        <mxCell id="0" />
        <mxCell id="1" parent="0" />
        <mxCell id="n0xzZIarMgplh2QM0Bvz-25" style="edgeStyle=orthogonalEdgeStyle;rounded=0;orthogonalLoop=1;jettySize=auto;html=1;exitX=1;exitY=0.5;exitDx=0;exitDy=0;entryX=0;entryY=0.5;entryDx=0;entryDy=0;" edge="1" parent="1" source="n0xzZIarMgplh2QM0Bvz-23" target="n0xzZIarMgplh2QM0Bvz-24">
          <mxGeometry relative="1" as="geometry" />
        </mxCell>
        <mxCell id="n0xzZIarMgplh2QM0Bvz-73" style="edgeStyle=orthogonalEdgeStyle;rounded=0;orthogonalLoop=1;jettySize=auto;html=1;exitX=0;exitY=0.5;exitDx=0;exitDy=0;startArrow=classic;startFill=1;endArrow=none;endFill=0;" edge="1" parent="1" source="n0xzZIarMgplh2QM0Bvz-23">
          <mxGeometry relative="1" as="geometry">
            <mxPoint x="-130" y="900" as="targetPoint" />
          </mxGeometry>
        </mxCell>
        <mxCell id="n0xzZIarMgplh2QM0Bvz-74" value="Start" style="edgeLabel;html=1;align=center;verticalAlign=middle;resizable=0;points=[];" vertex="1" connectable="0" parent="n0xzZIarMgplh2QM0Bvz-73">
          <mxGeometry x="0.0146" y="2" relative="1" as="geometry">
            <mxPoint as="offset" />
          </mxGeometry>
        </mxCell>
        <mxCell id="n0xzZIarMgplh2QM0Bvz-23" value="User Input (str)" style="rounded=0;whiteSpace=wrap;html=1;" vertex="1" parent="1">
          <mxGeometry x="-30" y="870" width="120" height="60" as="geometry" />
        </mxCell>
        <mxCell id="n0xzZIarMgplh2QM0Bvz-62" style="edgeStyle=orthogonalEdgeStyle;rounded=0;orthogonalLoop=1;jettySize=auto;html=1;exitX=1;exitY=0.5;exitDx=0;exitDy=0;entryX=0;entryY=0.5;entryDx=0;entryDy=0;" edge="1" parent="1" source="n0xzZIarMgplh2QM0Bvz-24" target="n0xzZIarMgplh2QM0Bvz-37">
          <mxGeometry relative="1" as="geometry" />
        </mxCell>
        <mxCell id="n0xzZIarMgplh2QM0Bvz-24" value="&lt;div&gt;Command&lt;/div&gt;&lt;div&gt;(with strings)&lt;br&gt;&lt;/div&gt;" style="rounded=0;whiteSpace=wrap;html=1;" vertex="1" parent="1">
          <mxGeometry x="174" y="870" width="120" height="60" as="geometry" />
        </mxCell>
        <mxCell id="n0xzZIarMgplh2QM0Bvz-33" style="edgeStyle=orthogonalEdgeStyle;rounded=0;orthogonalLoop=1;jettySize=auto;html=1;exitX=0.5;exitY=0;exitDx=0;exitDy=0;entryX=0.5;entryY=1;entryDx=0;entryDy=0;" edge="1" parent="1" source="n0xzZIarMgplh2QM0Bvz-31" target="n0xzZIarMgplh2QM0Bvz-23">
          <mxGeometry relative="1" as="geometry" />
        </mxCell>
        <mxCell id="n0xzZIarMgplh2QM0Bvz-31" value="Error" style="rounded=0;whiteSpace=wrap;html=1;" vertex="1" parent="1">
          <mxGeometry x="-30" y="1000" width="120" height="60" as="geometry" />
        </mxCell>
        <mxCell id="n0xzZIarMgplh2QM0Bvz-49" style="edgeStyle=orthogonalEdgeStyle;rounded=0;orthogonalLoop=1;jettySize=auto;html=1;exitX=1;exitY=0.5;exitDx=0;exitDy=0;entryX=0;entryY=0.5;entryDx=0;entryDy=0;" edge="1" parent="1" source="n0xzZIarMgplh2QM0Bvz-37" target="n0xzZIarMgplh2QM0Bvz-40">
          <mxGeometry relative="1" as="geometry" />
        </mxCell>
        <mxCell id="n0xzZIarMgplh2QM0Bvz-50" style="edgeStyle=orthogonalEdgeStyle;rounded=0;orthogonalLoop=1;jettySize=auto;html=1;exitX=0.5;exitY=1;exitDx=0;exitDy=0;entryX=0;entryY=0.5;entryDx=0;entryDy=0;dashed=1;" edge="1" parent="1" source="n0xzZIarMgplh2QM0Bvz-37" target="n0xzZIarMgplh2QM0Bvz-39">
          <mxGeometry relative="1" as="geometry" />
        </mxCell>
        <mxCell id="n0xzZIarMgplh2QM0Bvz-37" value="&lt;div&gt;Command&lt;/div&gt;&lt;div&gt;(with objects)&lt;br&gt;&lt;/div&gt;" style="rounded=0;whiteSpace=wrap;html=1;" vertex="1" parent="1">
          <mxGeometry x="600" y="870" width="120" height="60" as="geometry" />
        </mxCell>
        <mxCell id="n0xzZIarMgplh2QM0Bvz-51" value="Provides" style="edgeStyle=orthogonalEdgeStyle;rounded=0;orthogonalLoop=1;jettySize=auto;html=1;exitX=0.5;exitY=0;exitDx=0;exitDy=0;entryX=0.5;entryY=1;entryDx=0;entryDy=0;dashed=1;" edge="1" parent="1" source="n0xzZIarMgplh2QM0Bvz-39" target="n0xzZIarMgplh2QM0Bvz-40">
          <mxGeometry relative="1" as="geometry" />
        </mxCell>
        <mxCell id="n0xzZIarMgplh2QM0Bvz-39" value="Service Resolver" style="rounded=0;whiteSpace=wrap;html=1;" vertex="1" parent="1">
          <mxGeometry x="800" y="1000" width="120" height="60" as="geometry" />
        </mxCell>
        <mxCell id="n0xzZIarMgplh2QM0Bvz-95" style="edgeStyle=orthogonalEdgeStyle;rounded=0;orthogonalLoop=1;jettySize=auto;html=1;exitX=1;exitY=0.5;exitDx=0;exitDy=0;entryX=0;entryY=0.5;entryDx=0;entryDy=0;" edge="1" parent="1" source="n0xzZIarMgplh2QM0Bvz-40" target="n0xzZIarMgplh2QM0Bvz-75">
          <mxGeometry relative="1" as="geometry" />
        </mxCell>
        <mxCell id="n0xzZIarMgplh2QM0Bvz-96" value="Correct Object" style="edgeLabel;html=1;align=center;verticalAlign=middle;resizable=0;points=[];" vertex="1" connectable="0" parent="n0xzZIarMgplh2QM0Bvz-95">
          <mxGeometry x="-0.0222" y="-1" relative="1" as="geometry">
            <mxPoint as="offset" />
          </mxGeometry>
        </mxCell>
        <mxCell id="n0xzZIarMgplh2QM0Bvz-99" style="edgeStyle=orthogonalEdgeStyle;rounded=0;orthogonalLoop=1;jettySize=auto;html=1;exitX=1;exitY=0.75;exitDx=0;exitDy=0;entryX=0;entryY=0.5;entryDx=0;entryDy=0;" edge="1" parent="1" source="n0xzZIarMgplh2QM0Bvz-40" target="n0xzZIarMgplh2QM0Bvz-90">
          <mxGeometry relative="1" as="geometry" />
        </mxCell>
        <mxCell id="n0xzZIarMgplh2QM0Bvz-100" value="&lt;div&gt;Functionality is on&amp;nbsp;&lt;/div&gt;&lt;div&gt;Preposition Object&lt;/div&gt;" style="edgeLabel;html=1;align=center;verticalAlign=middle;resizable=0;points=[];" vertex="1" connectable="0" parent="n0xzZIarMgplh2QM0Bvz-99">
          <mxGeometry x="0.0244" y="1" relative="1" as="geometry">
            <mxPoint as="offset" />
          </mxGeometry>
        </mxCell>
        <mxCell id="n0xzZIarMgplh2QM0Bvz-40" value="&lt;div&gt;Service&lt;/div&gt;&lt;div&gt;(Object / Item)&lt;br&gt;&lt;/div&gt;" style="rounded=0;whiteSpace=wrap;html=1;" vertex="1" parent="1">
          <mxGeometry x="800" y="870" width="120" height="60" as="geometry" />
        </mxCell>
        <mxCell id="n0xzZIarMgplh2QM0Bvz-67" style="edgeStyle=orthogonalEdgeStyle;rounded=0;orthogonalLoop=1;jettySize=auto;html=1;exitX=0.75;exitY=0;exitDx=0;exitDy=0;" edge="1" parent="1" source="n0xzZIarMgplh2QM0Bvz-46">
          <mxGeometry relative="1" as="geometry">
            <mxPoint x="550" y="900" as="targetPoint" />
          </mxGeometry>
        </mxCell>
        <mxCell id="n0xzZIarMgplh2QM0Bvz-68" style="edgeStyle=orthogonalEdgeStyle;rounded=0;orthogonalLoop=1;jettySize=auto;html=1;exitX=0.25;exitY=0;exitDx=0;exitDy=0;endArrow=none;endFill=0;startArrow=classic;startFill=1;" edge="1" parent="1" source="n0xzZIarMgplh2QM0Bvz-46">
          <mxGeometry relative="1" as="geometry">
            <mxPoint x="490" y="900" as="targetPoint" />
          </mxGeometry>
        </mxCell>
        <mxCell id="n0xzZIarMgplh2QM0Bvz-46" value="Object Resolver" style="rounded=0;whiteSpace=wrap;html=1;" vertex="1" parent="1">
          <mxGeometry x="460" y="1000" width="120" height="60" as="geometry" />
        </mxCell>
        <mxCell id="n0xzZIarMgplh2QM0Bvz-63" style="edgeStyle=orthogonalEdgeStyle;rounded=0;orthogonalLoop=1;jettySize=auto;html=1;exitX=0.75;exitY=0;exitDx=0;exitDy=0;" edge="1" parent="1" source="n0xzZIarMgplh2QM0Bvz-59">
          <mxGeometry relative="1" as="geometry">
            <mxPoint x="390" y="900" as="targetPoint" />
          </mxGeometry>
        </mxCell>
        <mxCell id="n0xzZIarMgplh2QM0Bvz-64" style="edgeStyle=orthogonalEdgeStyle;rounded=0;orthogonalLoop=1;jettySize=auto;html=1;exitX=0.25;exitY=0;exitDx=0;exitDy=0;endArrow=none;endFill=0;startArrow=classic;startFill=1;" edge="1" parent="1" source="n0xzZIarMgplh2QM0Bvz-59">
          <mxGeometry relative="1" as="geometry">
            <mxPoint x="330" y="900" as="targetPoint" />
          </mxGeometry>
        </mxCell>
        <mxCell id="n0xzZIarMgplh2QM0Bvz-65" style="edgeStyle=orthogonalEdgeStyle;rounded=0;orthogonalLoop=1;jettySize=auto;html=1;exitX=0;exitY=0.5;exitDx=0;exitDy=0;entryX=1;entryY=0.5;entryDx=0;entryDy=0;" edge="1" parent="1" source="n0xzZIarMgplh2QM0Bvz-59" target="n0xzZIarMgplh2QM0Bvz-31">
          <mxGeometry relative="1" as="geometry" />
        </mxCell>
        <mxCell id="n0xzZIarMgplh2QM0Bvz-66" value="Invalid" style="edgeLabel;html=1;align=center;verticalAlign=middle;resizable=0;points=[];" vertex="1" connectable="0" parent="n0xzZIarMgplh2QM0Bvz-65">
          <mxGeometry x="-0.0207" y="-1" relative="1" as="geometry">
            <mxPoint as="offset" />
          </mxGeometry>
        </mxCell>
        <mxCell id="n0xzZIarMgplh2QM0Bvz-59" value="&lt;div&gt;Validator&lt;/div&gt;" style="rounded=0;whiteSpace=wrap;html=1;" vertex="1" parent="1">
          <mxGeometry x="300" y="1000" width="120" height="60" as="geometry" />
        </mxCell>
        <mxCell id="n0xzZIarMgplh2QM0Bvz-101" style="edgeStyle=orthogonalEdgeStyle;rounded=0;orthogonalLoop=1;jettySize=auto;html=1;exitX=1;exitY=0.5;exitDx=0;exitDy=0;" edge="1" parent="1" source="n0xzZIarMgplh2QM0Bvz-75">
          <mxGeometry relative="1" as="geometry">
            <mxPoint x="1240" y="900" as="targetPoint" />
          </mxGeometry>
        </mxCell>
        <mxCell id="n0xzZIarMgplh2QM0Bvz-102" value="End" style="edgeLabel;html=1;align=center;verticalAlign=middle;resizable=0;points=[];" vertex="1" connectable="0" parent="n0xzZIarMgplh2QM0Bvz-101">
          <mxGeometry x="0.3121" y="-1" relative="1" as="geometry">
            <mxPoint as="offset" />
          </mxGeometry>
        </mxCell>
        <mxCell id="n0xzZIarMgplh2QM0Bvz-75" value="Execute Action on Object / Item" style="rounded=0;whiteSpace=wrap;html=1;" vertex="1" parent="1">
          <mxGeometry x="1010" y="870" width="120" height="60" as="geometry" />
        </mxCell>
        <mxCell id="n0xzZIarMgplh2QM0Bvz-88" style="edgeStyle=orthogonalEdgeStyle;rounded=0;orthogonalLoop=1;jettySize=auto;html=1;exitX=0.5;exitY=1;exitDx=0;exitDy=0;entryX=0.5;entryY=0;entryDx=0;entryDy=0;dashed=1;" edge="1" parent="1" source="n0xzZIarMgplh2QM0Bvz-83" target="n0xzZIarMgplh2QM0Bvz-40">
          <mxGeometry relative="1" as="geometry" />
        </mxCell>
        <mxCell id="n0xzZIarMgplh2QM0Bvz-89" value="Injected" style="edgeLabel;html=1;align=center;verticalAlign=middle;resizable=0;points=[];" vertex="1" connectable="0" parent="n0xzZIarMgplh2QM0Bvz-88">
          <mxGeometry x="-0.18" y="-2" relative="1" as="geometry">
            <mxPoint as="offset" />
          </mxGeometry>
        </mxCell>
        <mxCell id="n0xzZIarMgplh2QM0Bvz-83" value="Containers" style="swimlane;whiteSpace=wrap;html=1;" vertex="1" parent="1">
          <mxGeometry x="690" y="470" width="340" height="300" as="geometry" />
        </mxCell>
        <mxCell id="n0xzZIarMgplh2QM0Bvz-77" value="Items Container" style="rounded=0;whiteSpace=wrap;html=1;" vertex="1" parent="n0xzZIarMgplh2QM0Bvz-83">
          <mxGeometry x="30" y="40" width="120" height="60" as="geometry" />
        </mxCell>
        <mxCell id="n0xzZIarMgplh2QM0Bvz-76" value="Objects Container" style="rounded=0;whiteSpace=wrap;html=1;" vertex="1" parent="n0xzZIarMgplh2QM0Bvz-83">
          <mxGeometry x="190" y="40" width="120" height="60" as="geometry" />
        </mxCell>
        <mxCell id="n0xzZIarMgplh2QM0Bvz-84" value="Environments Container" style="rounded=0;whiteSpace=wrap;html=1;" vertex="1" parent="n0xzZIarMgplh2QM0Bvz-83">
          <mxGeometry x="190" y="120" width="120" height="60" as="geometry" />
        </mxCell>
        <mxCell id="n0xzZIarMgplh2QM0Bvz-80" value="&lt;div&gt;Globals Container&lt;br&gt;&lt;/div&gt;&lt;div&gt;(Player)&lt;br&gt;&lt;/div&gt;" style="rounded=0;whiteSpace=wrap;html=1;" vertex="1" parent="n0xzZIarMgplh2QM0Bvz-83">
          <mxGeometry x="30" y="200" width="120" height="60" as="geometry" />
        </mxCell>
        <mxCell id="n0xzZIarMgplh2QM0Bvz-87" value="Effects Container" style="rounded=0;whiteSpace=wrap;html=1;" vertex="1" parent="n0xzZIarMgplh2QM0Bvz-83">
          <mxGeometry x="30" y="120" width="120" height="60" as="geometry" />
        </mxCell>
        <mxCell id="n0xzZIarMgplh2QM0Bvz-98" style="edgeStyle=orthogonalEdgeStyle;rounded=0;orthogonalLoop=1;jettySize=auto;html=1;exitX=0.5;exitY=0;exitDx=0;exitDy=0;entryX=0.5;entryY=1;entryDx=0;entryDy=0;" edge="1" parent="1" source="n0xzZIarMgplh2QM0Bvz-90" target="n0xzZIarMgplh2QM0Bvz-75">
          <mxGeometry relative="1" as="geometry" />
        </mxCell>
        <mxCell id="n0xzZIarMgplh2QM0Bvz-90" value="Conditional Import of Preposition Object Service" style="rounded=0;whiteSpace=wrap;html=1;" vertex="1" parent="1">
          <mxGeometry x="1010" y="1000" width="120" height="60" as="geometry" />
        </mxCell>
      </root>
    </mxGraphModel>
  </diagram>
</mxfile>
